<svg width="1440" height="680" viewBox="0 0 1440 680" fill="none" xmlns="http://www.w3.org/2000/svg">
<g filter="url(#filter0_d_4492_2127)">
<path d="M0 11.2432C0 11.2432 263 0 688 0C1113 0 1440 11.2432 1440 11.2432V672C1440 672 1381 672 942 672C503 672 0 672 0 672V11.2432Z" fill="#EFF5FB"/>
<path d="M0 11.2432C0 11.2432 263 0 688 0C1113 0 1440 11.2432 1440 11.2432V672C1440 672 1381 672 942 672C503 672 0 672 0 672V11.2432Z" fill="url(#paint0_linear_4492_2127)"/>
</g>
<defs>
<filter id="filter0_d_4492_2127" x="-4" y="0" width="1448" height="680" filterUnits="userSpaceOnUse" color-interpolation-filters="sRGB">
<feFlood flood-opacity="0" result="BackgroundImageFix"/>
<feColorMatrix in="SourceAlpha" type="matrix" values="0 0 0 0 0 0 0 0 0 0 0 0 0 0 0 0 0 0 127 0" result="hardAlpha"/>
<feOffset dy="4"/>
<feGaussianBlur stdDeviation="2"/>
<feComposite in2="hardAlpha" operator="out"/>
<feColorMatrix type="matrix" values="0 0 0 0 0 0 0 0 0 0 0 0 0 0 0 0 0 0 0.25 0"/>
<feBlend mode="normal" in2="BackgroundImageFix" result="effect1_dropShadow_4492_2127"/>
<feBlend mode="normal" in="SourceGraphic" in2="effect1_dropShadow_4492_2127" result="shape"/>
</filter>
<linearGradient id="paint0_linear_4492_2127" x1="720" y1="281.899" x2="720" y2="472.216" gradientUnits="userSpaceOnUse">
<stop stop-color="white" stop-opacity="0"/>
<stop offset="1" stop-color="white"/>
</linearGradient>
</defs>
</svg>
